# xmcd CD database file
#
# Track frame offsets:
#	150
#	11565
#	24682
#	36275
#	48862
#	63130
#	77245
#	92420
#	107890
#	122802
#	134450
#
# Disc length: 2046 seconds
#
# Revision: 3
# Processed by: cddbd v1.5.1PL2 Copyright (c) Steve Scherf et al.
# Submitted via: CDex 1.51
#
DISCID=8a07fc0b
DTITLE=Chris LeDoux - Under This Old Hat
DYEAR=1993
DGENRE=Country
TTITLE0=Under This Old Hat
TTITLE1=Get Back On That Pony
TTITLE2=Every Time I Roll The Dice
TTITLE3=Strugglin' Years
TTITLE4=Cowboys Like A Little Rock And Roll (Duet With Charlie Daniels)
TTITLE5=She's Tough
TTITLE6=Soft Place To Fall
TTITLE7=For Your Love
TTITLE8=Wild And Wooly
TTITLE9=Powder River Home
TTITLE10=Cadillac Ranch (Dance Club Version)
EXTD=YEAR: 1993
EXTT0=
EXTT1=
EXTT2=
EXTT3=
EXTT4=Duet With Charlie Daniels
EXTT5=
EXTT6=
EXTT7=
EXTT8=
EXTT9=
EXTT10=
PLAYORDER=
